<?xml version="1.0" encoding="UTF-8"?>
<svg width="220" height="300" viewBox="0 0 220 300" xmlns="http://www.w3.org/2000/svg">
  <!-- Face and head -->
  <path d="M110 40 C70 40, 60 100, 75 150 C85 180, 95 190, 110 190 C125 190, 135 180, 145 150 C160 100, 150 40, 110 40" fill="#84b7cf" />
  
  <!-- Hair -->
  <path d="M85 60 C75 50, 70 30, 90 25 C100 22, 120 22, 130 25 C150 30, 145 50, 135 60" fill="#2b5876" />
  
  <!-- Crown -->
  <path d="M85 25 L95 15 L105 25 L115 15 L125 25 L105 30 L85 25" fill="#ff5555" />
  
  <!-- Eyes (sad/concerned) -->
  <ellipse cx="90" cy="90" rx="10" ry="12" fill="white" />
  <ellipse cx="90" cy="90" rx="5" ry="6" fill="#000" />
  
  <ellipse cx="130" cy="90" rx="10" ry="12" fill="white" />
  <ellipse cx="130" cy="90" rx="5" ry="6" fill="#000" />
  
  <!-- Cheeks with blush marks -->
  <circle cx="70" cy="110" r="10" fill="#ff6666" opacity="0.6" />
  <circle cx="150" cy="110" r="10" fill="#ff6666" opacity="0.6" />
  
  <!-- Shirt/outfit (blue) -->
  <path d="M75 150 C85 200, 135 200, 145 150" fill="#ffffff" />
  <path d="M75 150 C65 170, 60 180, 70 190 C80 200, 90 205, 95 200" fill="#ffffff" />
  
  <!-- Envelope/Paper (pink) -->
  <path d="M90 190 L100 210 L140 190" fill="#ff98c9" />
  <path d="M100 210 L120 220 L140 190" fill="#ff98c9" stroke="#ff5555" stroke-width="1" />
  
  <!-- Arm -->
  <path d="M145 150 C160 160, 170 180, 160 200 C150 220, 130 210, 140 190" fill="#ffffff" />
</svg>